{"accessors":[{"bufferView":0,"componentType":5125,"count":986076,"type":"SCALAR"},{"bufferView":1,"componentType":5126,"count":986076,"max":[0.939823031425476,1.00844883918762,1.17549435082229e-38],"min":[-20.4830436706543,-0.764136254787445,-46.5573654174805],"type":"VEC3"},{"bufferView":2,"componentType":5126,"count":986076,"type":"VEC2"}],"asset":{"generator":"ply_to_gltf","version":"2.0"},"bufferViews":[{"buffer":0,"byteLength":3944304,"target":34963},{"buffer":0,"byteLength":11832912,"byteOffset":3944304,"target":34962},{"buffer":0,"byteLength":7888608,"byteOffset":15777216,"target":34962}],"buffers":[{"byteLength":23665824,"uri":"map_139586444_densified_mesh_textured_lod0.bin"}],"images":[{"uri":"map_139586444_densified_mesh_textured_4096.jpg"}],"materials":[{"pbrMetallicRoughness":{"baseColorTexture":{"index":0}}}],"meshes":[{"primitives":[{"attributes":{"POSITION":1,"TEXCOORD_0":2},"indices":0,"material":0,"mode":4}]}],"nodes":[{"mesh":0}],"samplers":[{"magFilter":9728,"minFilter":9728,"wrapR":10497,"wrapS":33071,"wrapT":33071}],"scene":0,"scenes":[{"nodes":[0]}],"textures":[{"sampler":0,"source":0}]}
